<?xml version="1.0" ?><!DOCTYPE svg  PUBLIC '-//W3C//DTD SVG 1.1//EN'  'http://www.w3.org/Graphics/SVG/1.1/DTD/svg11.dtd'><svg height="8.4666mm" style="shape-rendering:geometricPrecision; text-rendering:geometricPrecision; image-rendering:optimizeQuality; fill-rule:evenodd; clip-rule:evenodd" version="1.1" viewBox="0 0 847 847" width="8.4666mm" xml:space="preserve" xmlns="http://www.w3.org/2000/svg" xmlns:xlink="http://www.w3.org/1999/xlink"><defs><style type="text/css">
   <![CDATA[
    .fil1 {fill:#474443;fill-rule:nonzero}
    .fil0 {fill:#5F5D5D;fill-rule:nonzero}
   ]]>
  </style></defs><g id="Layer_x0020_1"><g id="_1046270128"><path class="fil0" d="M221 404c-8,-5 -17,-10 -26,-15 0,0 0,-1 -1,-1 -2,29 -3,59 -2,88 0,16 1,32 2,48 1,16 6,24 15,31 1,-50 9,-101 12,-150 0,0 0,0 0,-1z"/><path class="fil0" d="M206 618c-9,6 -15,15 -15,25 6,31 45,10 41,-14 -3,-13 -16,-17 -26,-11z"/><path class="fil0" d="M223 380c0,-2 1,-5 2,-7 -6,-4 -13,-9 -20,-13 -1,-1 -2,-2 -3,-2 -7,-5 -14,-10 -21,-15 -8,-5 -31,-18 -46,-32 1,6 20,27 21,27 11,8 23,16 35,23 10,3 22,12 32,19z"/><path class="fil0" d="M157 300c0,0 0,0 0,0 4,3 7,5 10,8 16,12 32,23 48,34 9,5 18,11 27,16 13,-8 28,-15 41,-21 41,-20 83,-34 126,-43 8,-2 11,10 3,12 -42,9 -84,22 -123,42 -9,4 -24,10 -36,18 2,1 5,2 7,4 7,4 14,8 21,13 18,10 36,20 55,30 4,2 9,5 14,8 8,4 16,7 25,11 37,15 66,2 101,-13 15,-6 31,-12 46,-19 48,-21 95,-44 140,-69 1,-1 2,-1 2,-1 6,-3 11,-6 17,-9 3,-2 6,-4 9,-6 0,0 0,0 0,0 2,-1 3,-2 5,-3 -40,-24 -86,-42 -129,-60 -44,-19 -88,-40 -134,-54 -21,-7 -50,8 -70,14 -23,9 -46,17 -70,24 -34,11 -67,23 -100,36 -12,4 -34,10 -46,17 0,1 1,2 3,4 3,2 5,5 8,7z"/><path class="fil0" d="M582 482c0,9 -1,18 -1,28 -1,8 -13,7 -13,-1 1,-9 1,-19 2,-28 0,-8 13,-7 12,1zm-5 55c-1,5 -3,11 -4,16 -1,4 -5,5 -8,4 -3,-1 -5,-4 -4,-8 1,-5 3,-11 4,-16 1,-4 5,-5 8,-4 3,1 5,4 4,8zm14 -108c0,1 0,2 0,3 -2,9 -3,18 -5,27 -1,8 -14,8 -13,0 2,-8 3,-16 5,-23 -44,20 -88,39 -133,54 -4,1 -8,2 -12,3 -15,3 -29,4 -44,-2 -23,-10 -45,-21 -67,-32 0,0 0,0 -1,0 -1,-1 -3,-2 -4,-2 -1,-1 -1,-1 -2,-1 -11,-6 -21,-11 -32,-17 -1,0 -2,-1 -3,-2 -11,-5 -22,-11 -32,-17 -5,-3 -10,-6 -15,-9 0,5 0,9 -1,14 -3,45 -10,91 -11,137 1,0 2,1 3,1 57,25 117,40 179,42 50,2 101,-2 149,-16 1,-4 2,-8 5,-11 4,-6 15,0 10,7 8,-3 15,-5 22,-8 20,-8 24,-21 28,-40 4,-18 7,-35 11,-53 4,-26 9,-53 13,-79 -7,3 -15,7 -22,10 -9,5 -19,10 -28,14z"/><path class="fil0" d="M679 345c-3,2 -6,3 -9,5 -2,2 -5,3 -8,5 -8,4 -15,8 -23,12 0,0 0,0 0,0 -5,3 -11,5 -16,8 -2,1 -4,2 -6,3 -6,3 -12,6 -18,9 -1,1 -3,2 -5,3 -26,12 -52,24 -79,36 -8,3 -16,6 -23,9 -31,13 -66,32 -100,25 -34,-6 -71,-30 -101,-48 -18,-10 -36,-20 -53,-31 -2,2 -3,5 -3,7 9,6 18,11 28,16 0,0 0,0 0,1 11,5 21,11 31,16 17,10 35,19 53,27 3,2 6,3 9,5 4,2 8,4 12,6 10,4 20,10 30,13 1,0 3,1 4,1 2,0 3,1 5,1 1,0 1,0 2,0 1,0 2,0 2,0 2,1 4,1 6,1 0,0 0,0 0,0 1,-1 3,-1 4,-1 0,0 0,0 0,0 2,0 3,0 5,0 1,-1 2,-1 3,-1 0,0 1,0 1,0 5,-1 10,-3 15,-5 10,-4 19,-7 29,-11 1,0 2,-1 3,-1 10,-4 19,-8 29,-12 0,0 0,0 0,0 9,-4 18,-8 27,-12 2,0 4,-1 6,-2 8,-4 16,-7 24,-11 1,-1 2,-1 4,-2 7,-3 15,-7 22,-10 6,-3 11,-5 16,-8 2,-1 5,-2 7,-4 5,-2 9,-4 14,-6 3,-2 5,-3 8,-5 25,-12 49,-26 74,-40 0,-5 0,-9 -1,-14 -9,5 -17,9 -26,14 0,1 -1,1 -2,1z"/><path class="fil1" d="M708 344c-25,14 -49,28 -74,40 -3,2 -5,3 -8,5 -5,2 -9,4 -14,6 -2,2 -5,3 -7,4 -5,3 -10,5 -16,8 -7,3 -15,7 -22,10 -2,1 -3,1 -4,2 -8,4 -16,7 -24,11 -2,1 -4,2 -6,2 -9,4 -18,8 -27,12 0,0 0,0 0,0 -10,4 -19,8 -29,12 -1,0 -2,1 -3,1 -10,4 -19,7 -29,11 -5,2 -10,4 -15,5 0,0 -1,0 -1,0 -1,0 -2,0 -3,1 -2,0 -3,0 -5,0 0,0 0,0 0,0 -1,0 -3,0 -4,1 0,0 0,0 0,0 -2,0 -4,0 -6,-1 0,0 -1,0 -2,0 -1,0 -1,0 -2,0 -2,0 -3,-1 -5,-1 -1,0 -3,-1 -4,-1 -10,-3 -20,-9 -30,-13 -4,-2 -8,-4 -12,-6 -3,-2 -6,-3 -9,-5 -18,-8 -36,-17 -53,-27 -10,-5 -20,-11 -31,-16 0,-1 0,-1 0,-1 -10,-5 -19,-10 -28,-16 0,-2 1,-5 3,-7 17,11 35,21 53,31 30,18 67,42 101,48 34,7 69,-12 100,-25 7,-3 15,-6 23,-9 27,-12 53,-24 79,-36 2,-1 4,-2 5,-3 6,-3 12,-6 18,-9 2,-1 4,-2 6,-3 5,-3 11,-5 16,-8 0,0 0,0 0,0 8,-4 15,-8 23,-12 3,-2 6,-3 8,-5 3,-2 6,-3 9,-5 1,0 2,0 2,-1 9,-5 17,-9 26,-14 1,5 1,9 1,14zm-80 140c-4,18 -7,35 -11,53 -4,19 -8,32 -28,40 -7,3 -14,5 -22,8 5,-7 -6,-13 -10,-7 -3,3 -4,7 -5,11 -48,14 -99,18 -149,16 -62,-2 -122,-17 -179,-42 -1,0 -2,-1 -3,-1 1,-46 8,-92 11,-137 1,-5 1,-9 1,-14 5,3 10,6 15,9 10,6 21,12 32,17 1,1 2,2 3,2 11,6 21,11 32,17 1,0 1,0 2,1 1,0 3,1 4,2 1,0 1,0 1,0 22,11 44,22 67,32 15,6 29,5 44,2 4,-1 8,-2 12,-3 45,-15 89,-34 133,-54 -2,7 -3,15 -5,23 -1,8 12,8 13,0 2,-9 3,-18 5,-27 0,-1 0,-2 0,-3 9,-4 19,-9 28,-14 7,-3 15,-7 22,-10 -4,26 -9,53 -13,79zm-419 71c-9,-7 -14,-15 -15,-31 -1,-16 -2,-32 -2,-48 -1,-29 0,-59 2,-88 1,0 1,1 1,1 9,5 18,10 26,15 0,1 0,1 0,1 -3,49 -11,100 -12,150zm23 74c4,24 -35,45 -41,14 0,-10 6,-19 15,-25 10,-6 23,-2 26,11zm-76 -291c-1,0 -20,-21 -21,-27 15,14 38,27 46,32 7,5 14,10 21,15 1,0 2,1 3,2 7,4 14,9 20,13 -1,2 -2,5 -2,7 -10,-7 -22,-16 -32,-19 -12,-7 -24,-15 -35,-23zm36 -66c33,-13 66,-25 100,-36 24,-7 47,-15 70,-24 20,-6 49,-21 70,-14 46,14 90,35 134,54 43,18 89,36 129,60 -2,1 -3,2 -5,3 0,0 0,0 0,0 -3,2 -6,4 -9,6 -6,3 -11,6 -17,9 0,0 -1,0 -2,1 -45,25 -92,48 -140,69 -15,7 -31,13 -46,19 -35,15 -64,28 -101,13 -9,-4 -17,-7 -25,-11 -5,-3 -10,-6 -14,-8 -19,-10 -37,-20 -55,-30 -7,-5 -14,-9 -21,-13 -2,-2 -5,-3 -7,-4 12,-8 27,-14 36,-18 39,-20 81,-33 123,-42 8,-2 5,-14 -3,-12 -43,9 -85,23 -126,43 -13,6 -28,13 -41,21 -9,-5 -18,-11 -27,-16 -16,-11 -32,-22 -48,-34 -3,-3 -6,-5 -10,-8 0,0 0,0 0,0 -3,-2 -5,-5 -8,-7 -2,-2 -3,-3 -3,-4 12,-7 34,-13 46,-17zm529 32c-44,-30 -96,-49 -144,-70 -46,-20 -93,-42 -141,-57 -23,-7 -52,6 -73,13 -27,9 -53,19 -80,28 -34,11 -67,23 -100,35 -17,6 -45,12 -58,25 0,1 -1,2 -1,3 -1,0 -1,1 -2,2 -1,4 -1,9 2,14 -9,13 -8,31 4,44 13,14 29,25 46,35 -3,38 -3,77 -2,115 1,30 -3,64 25,82 4,2 8,5 12,7 1,8 1,15 2,23 -1,0 -2,1 -3,1 -17,4 -30,22 -29,40 0,0 0,0 0,0 0,0 0,1 0,1 3,20 22,31 41,24 15,-6 26,-25 24,-41 -1,-12 -10,-21 -21,-24 0,-6 -1,-12 -1,-18 55,26 121,37 180,40 68,4 145,-6 208,-35 28,-13 28,-54 33,-79 8,-40 15,-80 21,-119 15,-8 30,-17 45,-25 7,-4 17,-7 19,-17 2,-12 0,-23 -4,-34 2,-4 1,-10 -3,-13z"/><path class="fil1" d="M570 481c-1,9 -1,19 -2,28 0,8 12,9 13,1 0,-10 1,-19 1,-28 1,-8 -12,-9 -12,-1z"/><path class="fil1" d="M573 529c-3,-1 -7,0 -8,4 -1,5 -3,11 -4,16 -1,4 1,7 4,8 3,1 7,0 8,-4 1,-5 3,-11 4,-16 1,-4 -1,-7 -4,-8z"/></g></g></svg>