<?xml version="1.0" encoding="iso-8859-1"?>
<!-- Generator: Adobe Illustrator 16.0.0, SVG Export Plug-In . SVG Version: 6.00 Build 0)  -->
<!DOCTYPE svg PUBLIC "-//W3C//DTD SVG 1.1//EN" "http://www.w3.org/Graphics/SVG/1.1/DTD/svg11.dtd">
<svg version="1.1" id="Capa_1" xmlns="http://www.w3.org/2000/svg" xmlns:xlink="http://www.w3.org/1999/xlink" x="0px" y="0px"
	 width="439.875px" height="439.875px" viewBox="0 0 439.875 439.875" style="enable-background:new 0 0 439.875 439.875;"
	 xml:space="preserve">
<g>
	<g>
		<path d="M95.625,172.125h19.125c11.475,0,19.125,7.65,19.125,19.125H153c0-21.038-17.212-38.25-38.25-38.25H95.625
			c-21.038,0-38.25,17.212-38.25,38.25v57.375c0,21.037,17.212,38.25,38.25,38.25h19.125c21.038,0,38.25-17.213,38.25-38.25h-19.125
			c0,11.475-7.65,19.125-19.125,19.125H95.625c-11.475,0-19.125-7.65-19.125-19.125V191.25
			C76.5,179.775,84.15,172.125,95.625,172.125z"/>
		<path d="M325.125,172.125h19.125c11.475,0,19.125,9.562,19.125,19.125H382.5c0-21.038-17.213-38.25-38.25-38.25h-19.125
			c-21.037,0-38.25,17.212-38.25,38.25c0,21.037,17.213,38.25,38.25,38.25h19.125c11.475,0,19.125,7.65,19.125,19.125
			s-7.65,19.125-19.125,19.125h-19.125c-11.475,0-19.125-9.562-19.125-19.125l0,0h-19.125l0,0c0,21.037,17.213,38.25,38.25,38.25
			h19.125c21.037,0,38.25-17.213,38.25-38.25s-17.213-38.25-38.25-38.25h-19.125c-11.475,0-19.125-7.65-19.125-19.125
			S313.65,172.125,325.125,172.125z"/>
		<path d="M210.375,172.125H229.5c11.475,0,19.125,9.562,19.125,19.125h19.125c0-21.038-17.213-38.25-38.25-38.25h-19.125
			c-21.038,0-38.25,17.212-38.25,38.25c0,21.037,17.212,38.25,38.25,38.25H229.5c11.475,0,19.125,7.65,19.125,19.125
			s-7.65,19.125-19.125,19.125h-19.125c-11.475,0-19.125-9.562-19.125-19.125l0,0h-19.125l0,0c0,21.037,17.212,38.25,38.25,38.25
			H229.5c21.037,0,38.25-17.213,38.25-38.25s-17.213-38.25-38.25-38.25h-19.125c-11.475,0-19.125-7.65-19.125-19.125
			S198.9,172.125,210.375,172.125z"/>
		<path d="M382.5,95.625H57.375C24.862,95.625,0,120.487,0,153v133.875c0,32.513,24.862,57.375,57.375,57.375H382.5
			c32.513,0,57.375-24.862,57.375-57.375V153C439.875,120.487,415.013,95.625,382.5,95.625z M420.75,286.875
			c0,21.037-17.213,38.25-38.25,38.25H57.375c-21.038,0-38.25-17.213-38.25-38.25V153c0-21.038,17.212-38.25,38.25-38.25H382.5
			c21.037,0,38.25,17.212,38.25,38.25V286.875z"/>
	</g>
</g>
<g>
</g>
<g>
</g>
<g>
</g>
<g>
</g>
<g>
</g>
<g>
</g>
<g>
</g>
<g>
</g>
<g>
</g>
<g>
</g>
<g>
</g>
<g>
</g>
<g>
</g>
<g>
</g>
<g>
</g>
</svg>
